<mxfile host="app.diagrams.net" modified="2023-11-27T17:42:07.836Z" agent="Mozilla/5.0 (Macintosh; Intel Mac OS X 10_15_7) AppleWebKit/537.36 (KHTML, like Gecko) Chrome/119.0.0.0 Safari/537.36" etag="zlUBRZ9aVRxlWmlxVTa0" version="22.1.4" type="device">
  <diagram name="Page-1" id="WUyEaCa0Hcr2wubJEwZL">
    <mxGraphModel dx="1434" dy="1989" grid="1" gridSize="10" guides="1" tooltips="1" connect="1" arrows="1" fold="1" page="1" pageScale="1" pageWidth="827" pageHeight="1169" math="0" shadow="0">
      <root>
        <mxCell id="0" />
        <mxCell id="1" parent="0" />
        <mxCell id="b8g6D_qaGEMtFk_5R88J-15" style="edgeStyle=orthogonalEdgeStyle;rounded=0;orthogonalLoop=1;jettySize=auto;html=1;entryX=0;entryY=0.5;entryDx=0;entryDy=0;curved=1;" edge="1" parent="1" source="b8g6D_qaGEMtFk_5R88J-1" target="b8g6D_qaGEMtFk_5R88J-2">
          <mxGeometry relative="1" as="geometry" />
        </mxCell>
        <mxCell id="b8g6D_qaGEMtFk_5R88J-1" value="&lt;font style=&quot;font-size: 15px;&quot; face=&quot;Verdana&quot;&gt;Controllers&lt;/font&gt;" style="rounded=1;whiteSpace=wrap;html=1;" vertex="1" parent="1">
          <mxGeometry x="40" y="160" width="160" height="80" as="geometry" />
        </mxCell>
        <mxCell id="b8g6D_qaGEMtFk_5R88J-12" style="edgeStyle=orthogonalEdgeStyle;rounded=0;orthogonalLoop=1;jettySize=auto;html=1;entryX=0;entryY=0.5;entryDx=0;entryDy=0;curved=1;dashed=1;" edge="1" parent="1" source="b8g6D_qaGEMtFk_5R88J-2" target="b8g6D_qaGEMtFk_5R88J-4">
          <mxGeometry relative="1" as="geometry" />
        </mxCell>
        <mxCell id="b8g6D_qaGEMtFk_5R88J-13" style="edgeStyle=orthogonalEdgeStyle;rounded=0;orthogonalLoop=1;jettySize=auto;html=1;entryX=0;entryY=0.5;entryDx=0;entryDy=0;curved=1;dashed=1;" edge="1" parent="1" source="b8g6D_qaGEMtFk_5R88J-2" target="b8g6D_qaGEMtFk_5R88J-3">
          <mxGeometry relative="1" as="geometry" />
        </mxCell>
        <mxCell id="b8g6D_qaGEMtFk_5R88J-14" style="edgeStyle=orthogonalEdgeStyle;rounded=0;orthogonalLoop=1;jettySize=auto;html=1;entryX=0;entryY=0.5;entryDx=0;entryDy=0;curved=1;dashed=1;" edge="1" parent="1" source="b8g6D_qaGEMtFk_5R88J-2" target="b8g6D_qaGEMtFk_5R88J-5">
          <mxGeometry relative="1" as="geometry" />
        </mxCell>
        <mxCell id="b8g6D_qaGEMtFk_5R88J-2" value="&lt;font style=&quot;font-size: 15px;&quot; face=&quot;Verdana&quot;&gt;EntityDAO&lt;/font&gt;" style="rounded=1;whiteSpace=wrap;html=1;" vertex="1" parent="1">
          <mxGeometry x="320" y="80" width="160" height="80" as="geometry" />
        </mxCell>
        <mxCell id="b8g6D_qaGEMtFk_5R88J-9" style="edgeStyle=orthogonalEdgeStyle;rounded=0;orthogonalLoop=1;jettySize=auto;html=1;" edge="1" parent="1" source="b8g6D_qaGEMtFk_5R88J-3" target="b8g6D_qaGEMtFk_5R88J-6">
          <mxGeometry relative="1" as="geometry" />
        </mxCell>
        <mxCell id="b8g6D_qaGEMtFk_5R88J-3" value="&lt;font style=&quot;font-size: 15px;&quot; face=&quot;Verdana&quot;&gt;EntityMongoDAO&lt;/font&gt;" style="rounded=1;whiteSpace=wrap;html=1;" vertex="1" parent="1">
          <mxGeometry x="600" y="-80" width="160" height="80" as="geometry" />
        </mxCell>
        <mxCell id="b8g6D_qaGEMtFk_5R88J-10" style="edgeStyle=orthogonalEdgeStyle;rounded=0;orthogonalLoop=1;jettySize=auto;html=1;" edge="1" parent="1" source="b8g6D_qaGEMtFk_5R88J-4" target="b8g6D_qaGEMtFk_5R88J-7">
          <mxGeometry relative="1" as="geometry" />
        </mxCell>
        <mxCell id="b8g6D_qaGEMtFk_5R88J-4" value="&lt;font style=&quot;font-size: 15px;&quot; face=&quot;Verdana&quot;&gt;EntityMySQLDAO&lt;/font&gt;" style="rounded=1;whiteSpace=wrap;html=1;" vertex="1" parent="1">
          <mxGeometry x="600" y="80" width="160" height="80" as="geometry" />
        </mxCell>
        <mxCell id="b8g6D_qaGEMtFk_5R88J-11" style="edgeStyle=orthogonalEdgeStyle;rounded=0;orthogonalLoop=1;jettySize=auto;html=1;" edge="1" parent="1" source="b8g6D_qaGEMtFk_5R88J-5" target="b8g6D_qaGEMtFk_5R88J-8">
          <mxGeometry relative="1" as="geometry" />
        </mxCell>
        <mxCell id="b8g6D_qaGEMtFk_5R88J-5" value="&lt;font style=&quot;font-size: 15px;&quot; face=&quot;Verdana&quot;&gt;EntityRedisDAO&lt;/font&gt;" style="rounded=1;whiteSpace=wrap;html=1;" vertex="1" parent="1">
          <mxGeometry x="600" y="240" width="160" height="80" as="geometry" />
        </mxCell>
        <mxCell id="b8g6D_qaGEMtFk_5R88J-6" value="&lt;font style=&quot;font-size: 15px;&quot;&gt;MongoDB&lt;/font&gt;" style="shape=cylinder3;whiteSpace=wrap;html=1;boundedLbl=1;backgroundOutline=1;size=15;" vertex="1" parent="1">
          <mxGeometry x="880" y="-100" width="80" height="120" as="geometry" />
        </mxCell>
        <mxCell id="b8g6D_qaGEMtFk_5R88J-7" value="&lt;font style=&quot;font-size: 15px;&quot;&gt;MySQL&lt;/font&gt;" style="shape=cylinder3;whiteSpace=wrap;html=1;boundedLbl=1;backgroundOutline=1;size=15;" vertex="1" parent="1">
          <mxGeometry x="880" y="60" width="80" height="120" as="geometry" />
        </mxCell>
        <mxCell id="b8g6D_qaGEMtFk_5R88J-8" value="&lt;font style=&quot;font-size: 15px;&quot;&gt;Redis&lt;/font&gt;" style="shape=cylinder3;whiteSpace=wrap;html=1;boundedLbl=1;backgroundOutline=1;size=15;" vertex="1" parent="1">
          <mxGeometry x="880" y="220" width="80" height="120" as="geometry" />
        </mxCell>
        <mxCell id="b8g6D_qaGEMtFk_5R88J-17" style="edgeStyle=orthogonalEdgeStyle;rounded=0;orthogonalLoop=1;jettySize=auto;html=1;entryX=0;entryY=0.5;entryDx=0;entryDy=0;curved=1;" edge="1" parent="1" source="b8g6D_qaGEMtFk_5R88J-16" target="b8g6D_qaGEMtFk_5R88J-2">
          <mxGeometry relative="1" as="geometry" />
        </mxCell>
        <mxCell id="b8g6D_qaGEMtFk_5R88J-16" value="&lt;font style=&quot;font-size: 15px;&quot; face=&quot;Verdana&quot;&gt;Anything that needs data&lt;/font&gt;" style="rounded=1;whiteSpace=wrap;html=1;" vertex="1" parent="1">
          <mxGeometry x="40" width="160" height="80" as="geometry" />
        </mxCell>
      </root>
    </mxGraphModel>
  </diagram>
</mxfile>
